PathFileType	4	(X/Y/Z)	C:\Users\WrightLab\Desktop\Jo\P3_25.trc
DataRate	CameraRate	NumFrames	NumMarkers	Units	OrigDataRate	OrigDataStartFrame	OrigNumFrames
100.00	100.00	       9	19	mm	100.00	72	       575
Frame#	Time	Headset_Front			Headset_Back			Headset_Left			Headset_Right			Left_Shoulder			Right_Shoulder			Sternum			C7			Left Elbow			Right Elbow			Left Wrist			Right Wrist			Left ASIS			Right ASIS			S2			Left Knee			Right Knee			Left Ankle			Right Ankle			
		X1	Y1	Z1	X2	Y2	Z2	X3	Y3	Z3	X4	Y4	Z4	X5	Y5	Z5	X6	Y6	Z6	X7	Y7	Z7	X8	Y8	Z8	X9	Y9	Z9	X10	Y10	Z10	X11	Y11	Z11	X12	Y12	Z12	X13	Y13	Z13	X14	Y14	Z14	X15	Y15	Z15	X16	Y16	Z16	X17	Y17	Z17	X18	Y18	Z18	X19	Y19	Z19	

72	0.710	-631.30731	1439.38977	-650.95203	-671.16412	1559.28503	-930.02167				-755.57379	1478.40588	-743.20679	-470.43839	1273.46008	-878.15533	-833.05225	1289.02380	-914.74072	-662.79364	1163.19214	-769.64868	-650.96875	1339.06201	-945.43811	-418.03976	936.29834	-896.46100	-905.24078	939.86395	-926.55139	-450.18665	745.21973	-820.05603	-914.31464	766.95416	-778.84302	-585.91150	807.05707	-780.89355				-658.78857	888.73914	-1014.68439	-618.99847	421.57108	-681.53723	-798.19611	388.53415	-993.13159	-655.43994	89.73354	-675.17798				
73	0.720	-629.91077	1441.35864	-640.27576	-670.04871	1561.01245	-920.22858				-754.54755	1479.75476	-732.90674	-469.87851	1275.03796	-869.25043	-832.16699	1291.57959	-904.09583	-662.14716	1165.45459	-759.32092	-649.56934	1340.51672	-935.92572	-418.23853	937.66705	-889.84302	-904.57684	942.40186	-916.60669	-449.59280	745.92981	-810.62823	-912.66937	768.05353	-770.67816	-585.04388	809.32086	-768.73865				-660.54846	890.45367	-1003.18890	-617.90674	422.20270	-675.62054	-801.31549	387.69028	-977.39075	-654.88385	89.86211	-673.85724				
74	0.730	-628.44720	1442.54065	-629.90399	-668.86133	1563.13708	-910.03888				-749.08392	1478.72131	-721.66937	-469.20203	1276.49988	-859.85712	-832.10809	1295.05139	-893.67999	-661.71149	1168.28491	-748.88763	-648.81445	1342.54016	-930.33551	-417.68320	939.03729	-880.01788	-903.87665	945.87018	-908.00470	-449.03732	747.77625	-802.51245	-912.38367	769.84601	-763.59845	-584.59857	812.40656	-758.31226				-662.27679	892.65491	-991.86859	-616.20050	422.91037	-669.26453	-805.59967	387.00671	-960.10059	-653.83240	90.43206	-672.19598				
75	0.740	-626.26233	1444.90210	-619.74829	-667.87122	1565.15735	-900.05957				-747.55182	1480.70459	-711.64490	-468.27921	1278.56201	-852.66901	-830.84680	1297.94922	-883.57629	-661.58667	1171.16150	-739.25079	-647.59021	1344.86279	-917.72272	-417.28195	941.34814	-871.76483	-903.25549	949.42401	-899.18237	-448.86435	749.06549	-794.39410	-911.96509	771.75989	-757.30353	-584.09332	815.59259	-747.22662				-663.54047	894.65155	-980.44885	-616.07031	422.91559	-663.53308	-810.27002	386.06049	-941.11932	-653.76086	90.24662	-671.71741				
76	0.750	-624.44482	1446.47278	-610.52594	-666.89606	1567.47449	-889.95154				-746.50574	1482.91296	-701.69623	-467.67435	1279.72717	-842.65100	-830.34857	1301.50122	-873.28412	-660.51520	1173.69177	-728.68744	-647.29193	1346.07349	-905.58636	-417.49445	943.46283	-864.47943	-902.85516	952.97205	-889.48126	-447.15253	750.75323	-784.81830	-911.70538	773.20294	-749.66907	-584.33728	818.43835	-737.79779				-664.50024	897.00305	-970.28815	-614.40411	423.26724	-657.99963	-814.88489	386.04459	-923.17432	-653.17798	90.40639	-670.78198				
77	0.760	-622.62817	1449.04126	-601.48108	-665.83289	1569.80249	-879.98431				-746.43536	1485.58496	-691.99493	-467.03928	1281.30933	-833.09326	-829.83582	1304.22375	-862.63165	-659.71527	1175.77942	-718.33295	-645.90106	1348.63733	-897.20569	-416.61273	944.81580	-854.77063	-902.78204	956.56390	-880.17572	-446.85553	752.53546	-774.98901	-911.33203	774.29779	-743.00098	-583.42682	821.37823	-728.15509				-665.06976	899.16858	-959.86414	-614.37903	423.96713	-652.85632	-818.73944	385.83682	-904.65527	-652.70648	90.29202	-670.55005				
78	0.770	-621.86694	1450.10095	-591.26099	-665.03943	1571.76025	-870.61548				-743.75360	1487.43542	-682.28839	-466.90707	1283.04858	-823.89111	-828.82544	1306.99719	-852.52930	-659.38745	1178.42322	-708.73853	-644.99335	1349.69336	-887.23993	-416.29248	946.00598	-847.29889	-902.92651	959.95166	-869.94086	-447.05603	755.12085	-765.32001	-911.11493	776.10358	-735.33453	-583.19739	822.78314	-717.78796				-665.30194	901.25403	-949.51819	-612.12640	421.52109	-647.48010	-821.87305	384.53510	-883.88190	-652.94592	90.06787	-670.20575				
79	0.780	-636.12512	1438.99658	-638.53113	-664.16290	1573.41882	-861.01630				-742.24707	1489.30688	-672.01367	-466.18781	1284.06067	-814.79047	-828.09381	1310.00146	-842.13226	-659.13739	1181.20642	-698.58582	-645.95862	1353.31531	-883.83545	-415.82507	948.11572	-837.65259	-903.51422	963.05219	-860.13422	-445.58746	757.20306	-755.15686	-911.38879	777.37579	-725.77228	-582.87292	824.90558	-708.47095				-665.51782	903.00507	-939.65820	-611.39343	421.95023	-642.56671	-825.60547	384.76691	-864.40906	-652.46295	90.08736	-670.31421				
80	0.790				-663.33130	1575.39734	-851.55371				-741.24072	1490.68604	-662.58295	-465.53125	1286.15735	-805.33618	-827.65790	1311.88831	-831.90234	-657.94073	1183.28650	-689.20087	-643.86127	1352.69531	-867.92499	-415.69525	949.84497	-828.36383	-904.23438	966.12994	-850.31793	-444.80801	759.07843	-745.41107	-911.57312	779.12866	-718.47760	-581.81824	826.06171	-699.31128	-830.27094	820.22101	-755.01471	-665.49487	904.99170	-930.18646	-609.83716	421.99246	-640.06299	-829.12634	385.34952	-844.96228	-651.17993	90.21790	-670.00970				
